# xmcd
#
# Track frame offsets:
# 183
# 13560
# 26320
# 36830
# 55560
# 72588
# 90565
# 104443
# 117680
# 127253
# 139393
# 171005
# 185750
# 220730
# 247800
# 281678
# 291070
# 311948
# 336128
#
# Disc length: 4639 seconds
#
#
# Revision: 6
# Processed by: cddbd v1.5.1PL0 Copyright (c) Steve Scherf et al.
# Submitted via: FreeRIP 2.941 
#
DISCID=23121d13
DTITLE=Various Artist - Planete blues 2 - The best of blues rock
DYEAR=1900
DGENRE=
TTITLE0=Muddy waters - Got my mojo working
TTITLE1=Etta James - Spoonful
TTITLE2=Dale Hawkins - Suzy Q
TTITLE3=Muddy Waters - I'm ready
TTITLE4=Howlin' Wolf - Sittin' on the top of the world
TTITLE5=Koko Taylor - Big Boss man
TTITLE6=Willie Dixon - Walking the blues
TTITLE7=Elmore James - Dust my broom
TTITLE8=Howlin' Wolf - built for comfort
TTITLE9=Jimmy Reed - Bright lights, bright city
TTITLE10=Ten years after - good morning little school girl
TTITLE11=Jean-Jacques Milteau - Sweet home chicago
TTITLE12=Joe Cocker - St James infirmary
TTITLE13=Luther Allison - Early in the morning
TTITLE14=Calvin Russel - Crossroads
TTITLE15=Canned Heat - Big road blues
TTITLE16=Steve Ray Vaughan - The sky is crying
TTITLE17=Jean-Jacques Goldman - Peur de rien blues
TTITLE18=Canned Heat - Got my mojo working
EXTD=
EXTT0=
EXTT1=
EXTT2=
EXTT3=
EXTT4=
EXTT5=
EXTT6=
EXTT7=
EXTT8=
EXTT9=
EXTT10=
EXTT11=
EXTT12=
EXTT13=
EXTT14=
EXTT15=
EXTT16=
EXTT17=
EXTT18=
PLAYORDER=
